<svg width="24" height="25" viewBox="0 0 24 25" fill="none" xmlns="http://www.w3.org/2000/svg" id="chat-viber">
<path d="M11.7457 0C10.991 0 10.991 1.17621 11.7457 1.18601C17.6013 1.2311 22.4237 5.31254 22.4767 12.7991C22.4767 13.5891 23.6333 13.5793 23.6235 12.7893H23.6215C23.5588 4.72247 18.2933 0.045088 11.7457 0Z" fill="white"/>
<path d="M19.449 11.5584C19.4313 12.3387 20.586 12.3759 20.5958 11.5859C20.6918 7.13786 17.9493 3.47397 12.7955 3.08778C12.0408 3.0329 11.9624 4.2189 12.7152 4.27379C17.1848 4.61293 19.5392 7.66323 19.449 11.5584Z" fill="white"/>
<path d="M18.215 16.618C17.2466 16.0573 16.2605 16.4062 15.8527 16.9571L15 18.0608C14.5668 18.6214 13.7571 18.5469 13.7571 18.5469C7.84867 16.9845 6.26863 10.8016 6.26863 10.8016C6.26863 10.8016 6.1961 9.96455 6.73715 9.51563L7.80358 8.63347C8.33679 8.21004 8.67397 7.19066 8.13096 6.18892C6.6803 3.56794 5.70601 2.66422 5.21005 1.97026C4.68859 1.31746 3.90446 1.17044 3.08895 1.61152H3.07131C1.37561 2.60345 -0.48083 4.4599 0.113154 6.37123C1.12665 8.38647 2.98898 14.8105 8.9249 19.6643C11.7145 21.9599 16.1292 24.3123 18.0032 24.8553L18.0209 24.8828C19.8675 25.4983 21.6632 23.5693 22.6218 21.8227V21.809C23.0472 20.964 22.9061 20.1642 22.2846 19.6408C21.1829 18.5665 19.5205 17.3805 18.215 16.618Z" fill="white"/>
<path d="M13.6042 7.46363C15.4881 7.57341 16.4016 8.55751 16.4996 10.5786C16.5349 11.3687 17.6817 11.3138 17.6464 10.5237C17.5209 7.88511 16.1448 6.41485 13.6669 6.27762C12.9121 6.23253 12.8416 7.41855 13.6042 7.46363Z" fill="white"/>
</svg>
