<svg width="9" height="17" viewBox="0 0 9 17" fill="none" xmlns="http://www.w3.org/2000/svg" id="facebook">
<path d="M8.66109 0.0034636L6.5024 0C4.07718 0 2.5099 1.60798 2.5099 4.09675V5.98563H0.339433C0.151879 5.98563 0 6.13768 0 6.32523V9.062C0 9.24955 0.152052 9.40143 0.339433 9.40143H2.5099V16.3072C2.5099 16.4947 2.66178 16.6466 2.84933 16.6466H5.68118C5.86873 16.6466 6.02061 16.4945 6.02061 16.3072V9.40143H8.55839C8.74595 9.40143 8.89782 9.24955 8.89782 9.062L8.89886 6.32523C8.89886 6.23518 8.86302 6.14894 8.79946 6.08521C8.7359 6.02147 8.64931 5.98563 8.55926 5.98563H6.02061V4.3844C6.02061 3.61479 6.20401 3.2241 7.20655 3.2241L8.66074 3.22358C8.84812 3.22358 9 3.07152 9 2.88414V0.342897C9 0.155689 8.84829 0.00380996 8.66109 0.0034636Z" fill="#E7EBF5"/>
</svg>
