<svg width="40" height="40" viewBox="0 0 40 40" fill="none" xmlns="http://www.w3.org/2000/svg">
<path d="M35.1359 7.12977C34.6302 4.40977 32.2393 2.34375 29.375 2.34375H26.621C24.8096 0.878906 22.5057 0 20 0C17.4943 0 15.1904 0.878906 13.379 2.34375H10.625C7.7607 2.34375 5.36984 4.40977 4.86414 7.12977C2.14414 7.63539 0.078125 10.0263 0.078125 12.8906V14.0625H2.53961C3.08406 16.7336 5.45164 18.75 8.28125 18.75H10.0288C11.4577 22.8829 15.3875 25.8594 20 25.8594C24.6125 25.8594 28.5424 22.8829 29.9712 18.75H31.7188C34.5484 18.75 36.9159 16.7336 37.4604 14.0625H39.9219V12.8906C39.9219 10.0263 37.8559 7.63539 35.1359 7.12977ZM20 2.34375C23.9116 2.34375 27.1921 5.09602 28.0078 8.76562C27.3637 8.43195 26.6335 8.24219 25.8594 8.24219C23.6792 8.24219 21.8419 9.73836 21.3202 11.7578H18.6798C18.1581 9.73836 16.3209 8.24219 14.1407 8.24219C13.3666 8.24219 12.6364 8.43195 11.9923 8.76562C12.8079 5.09602 16.0884 2.34375 20 2.34375ZM9.45312 10.5469V15.3125C9.45312 15.6818 9.47242 16.0466 9.50961 16.4062H8.28125C6.34273 16.4062 4.76562 14.8291 4.76562 12.8906V11.7188H2.62266C3.10633 10.3546 4.40969 9.375 5.9375 9.375H7.10938V8.20312C7.10938 6.26461 8.68648 4.6875 10.625 4.6875H11.2348C10.1101 6.36453 9.45312 8.38031 9.45312 10.5469ZM14.1406 10.5859C15.433 10.5859 16.4844 11.6373 16.4844 12.9297C16.4844 14.222 15.433 15.2734 14.1406 15.2734C12.8483 15.2734 11.7969 14.222 11.7969 12.9297C11.7969 11.6373 12.8483 10.5859 14.1406 10.5859ZM20 23.5156C16.0884 23.5156 12.8079 20.7634 11.9922 17.0938C12.6363 17.4274 13.3665 17.6172 14.1406 17.6172C16.3208 17.6172 18.1581 16.121 18.6798 14.1016H21.3202C21.8419 16.121 23.6791 17.6172 25.8593 17.6172C26.6334 17.6172 27.3636 17.4274 28.0077 17.0938C27.1921 20.7634 23.9116 23.5156 20 23.5156ZM25.8594 15.2734C24.567 15.2734 23.5156 14.222 23.5156 12.9297C23.5156 11.6373 24.567 10.5859 25.8594 10.5859C27.1517 10.5859 28.2031 11.6373 28.2031 12.9297C28.2031 14.222 27.1517 15.2734 25.8594 15.2734ZM35.2344 11.7188V12.8906C35.2344 14.8291 33.6573 16.4062 31.7188 16.4062H30.4904C30.5276 16.0466 30.5469 15.6818 30.5469 15.3125V10.5469C30.5469 8.38031 29.8899 6.36453 28.7652 4.6875H29.375C31.3135 4.6875 32.8906 6.26461 32.8906 8.20312V9.375H34.0625C35.5903 9.375 36.8937 10.3546 37.3773 11.7188H35.2344Z" fill="#75ACFF"/>
<path d="M29.4531 28.2031H10.5469C4.73133 28.2031 0 32.9345 0 38.75V40H40V38.75C40 32.9345 35.2687 28.2031 29.4531 28.2031ZM9.45312 37.6562H2.41641C2.90477 34.0062 5.80305 31.1084 9.45312 30.6199V37.6562ZM11.7969 37.6562V32.2209L17.1873 37.6562H11.7969ZM13.4377 30.5469H26.5624L20 37.1639L13.4377 30.5469ZM28.2031 37.6562H22.8127L28.2031 32.2209V37.6562ZM30.5469 37.6562V30.6199C34.197 31.1084 37.0952 34.0061 37.5836 37.6562H30.5469Z" fill="#75ACFF"/>
</svg>
