<svg width="22" height="22" viewBox="0 0 22 22" fill="none" xmlns="http://www.w3.org/2000/svg">
<path d="M-0.000335693 2.44932H8.48729V0H13.1296V2.44932H21.6172V16.3568H17.7011V22H13.9029V18.935H7.71404V22H3.91579V16.3568H-0.000291824V2.44932H-0.000335693ZM11.8635 1.28905H9.75328V2.44932H11.8635V1.28905ZM16.4351 20.711V16.3568H15.1689V20.711H16.4351ZM13.9029 17.646V16.3568H7.71404V17.646H13.9029ZM5.18177 20.711H6.44797V16.3568H5.18177V20.711ZM1.26569 15.0677H20.3512V3.73837H1.26569V15.0677Z" fill="#75ACFF"/>
<path d="M10.8079 11.9171H11.8276V7.6632H13.0936V11.9171H14.3598V6.18066H15.6258V11.9171H16.892V8.95233H18.158V11.9171H19.1777V13.2061H10.8079V11.9171Z" fill="#75ACFF"/>
<path d="M8.69922 11.3369H2.43959V12.626H8.69922V11.3369Z" fill="#75ACFF"/>
<path d="M8.69922 8.75879H2.43959V10.0478H8.69922V8.75879Z" fill="#75ACFF"/>
<path d="M8.69922 6.18066H2.43959V7.46971H8.69922V6.18066Z" fill="#75ACFF"/>
</svg>
