<svg width="10" height="11" viewBox="0 0 10 11" xmlns="http://www.w3.org/2000/svg" id="call">
<path d="M8.87998 7.34234C8.2318 6.79728 7.57399 6.46711 6.93376 7.01135L6.55147 7.34028C6.27177 7.57905 5.75171 8.6947 3.74101 6.42059C1.73073 4.14936 2.92702 3.79573 3.20714 3.55902L3.59153 3.22967C4.2284 2.6842 3.98806 1.99752 3.52872 1.29067L3.25153 0.862526C2.7901 0.157321 2.28763 -0.305817 1.64908 0.238833L1.30405 0.535241C1.02183 0.737375 0.232963 1.39441 0.0416073 2.64262C-0.18869 4.14031 0.537793 5.85536 2.20221 7.73714C3.86454 9.61974 5.49211 10.5654 7.03384 10.5489C8.31513 10.5353 9.08893 9.85934 9.33095 9.61357L9.67723 9.31675C10.3141 8.77251 9.91841 8.21839 9.26981 7.67209L8.87998 7.34234Z"/>
</svg>
