<svg width="25" height="25" viewBox="0 0 25 25" fill="none" xmlns="http://www.w3.org/2000/svg">
<path d="M4.2212 17.0317L8.07352 14.4168V9.82031H9.33956V2H22V24H5.78321L3.57594 19.5053C3.14861 18.6349 3.42596 17.5715 4.2212 17.0317ZM20.734 22.7109V3.28906H10.6056V9.82031H11.8717V15.4259L13.8293 18.4157C14.2559 19.0673 14.2559 19.9092 13.8293 20.5608L12.4215 22.7109H20.734ZM4.70838 18.9288L6.5657 22.7109H10.8999L12.7759 19.8458C12.918 19.6286 12.918 19.3479 12.7759 19.1308L11.8717 17.7499V18.8438H10.6056V11.1094H9.33956V15.1067L4.92343 18.1043C4.65841 18.2842 4.56595 18.6387 4.70838 18.9288Z" fill="#75ACFF"/>
<path d="M13.7702 11.7539V9.82031H16.3023V9.17578C16.3023 8.82039 16.0183 8.53125 15.6693 8.53125H13.7702V7.24219H15.0363V5.95312H16.3023V7.35305C17.0391 7.61911 17.5684 8.33553 17.5684 9.17578V11.1094H15.0363V11.7539C15.0363 12.1093 15.3202 12.3984 15.6693 12.3984H17.5684V13.6875H16.3023V14.9766H15.0363V13.5766C14.2995 13.3106 13.7702 12.5942 13.7702 11.7539Z" fill="#75ACFF"/>
</svg>
