<?xml version="1.0" standalone="no"?>
<!DOCTYPE svg PUBLIC "-//W3C//DTD SVG 20010904//EN"
 "http://www.w3.org/TR/2001/REC-SVG-20010904/DTD/svg10.dtd">
<svg version="1.0" xmlns="http://www.w3.org/2000/svg"
 width="512.000000pt" height="512.000000pt" viewBox="0 0 512.000000 512.000000"
 preserveAspectRatio="xMidYMid meet">
<metadata>
Created by potrace 1.11, written by Peter Selinger 2001-2013
</metadata>
<g transform="translate(0.000000,512.000000) scale(0.100000,-0.100000)"
fill="#000000" stroke="none">
<path d="M2014 4045 c-7 -5 -46 -64 -87 -130 -144 -233 -458 -738 -588 -948
-55 -87 -99 -161 -99 -165 0 -4 295 -7 657 -7 l656 0 49 73 c26 41 48 75 48
77 0 3 95 158 120 195 8 12 93 150 129 210 29 47 188 301 210 335 14 22 30 48
36 58 5 9 49 80 98 158 48 77 87 143 87 147 0 11 -1301 8 -1316 -3z"/>
<path d="M3755 4043 c-5 -14 -192 -317 -262 -425 -24 -37 -43 -70 -43 -73 0
-4 -11 -21 -25 -39 -14 -18 -25 -36 -25 -40 0 -4 -5 -12 -10 -19 -6 -7 -48
-73 -94 -147 -46 -74 -133 -215 -194 -314 -62 -98 -110 -181 -108 -185 6 -8
1298 -7 1312 2 7 4 38 50 70 102 33 53 68 111 79 129 11 18 40 66 65 107 24
41 48 79 53 84 4 6 34 53 66 105 32 52 145 234 251 403 105 170 189 312 185
315 -3 3 -300 6 -660 7 -510 0 -656 -3 -660 -12z"/>
<path d="M930 2308 c-35 -57 -78 -125 -95 -153 -37 -57 -225 -361 -240 -387
-5 -10 -59 -97 -120 -193 -60 -97 -121 -195 -134 -218 -13 -23 -28 -43 -32
-45 -5 -2 -9 -8 -9 -13 0 -5 -16 -33 -35 -64 -20 -30 -38 -61 -41 -68 -4 -11
113 -13 650 -13 569 1 657 3 670 16 7 8 136 213 286 455 150 242 299 482 331
533 32 50 59 94 59 96 0 2 20 35 45 73 25 37 45 71 45 76 0 4 -296 7 -658 7
l-659 0 -63 -102z"/>
<path d="M2705 2343 c-22 -38 -43 -72 -48 -78 -4 -5 -95 -152 -202 -325 -107
-173 -199 -322 -205 -330 -20 -31 -280 -451 -280 -453 0 -2 297 -3 661 -2
l661 0 54 85 c30 47 57 92 61 100 3 8 18 33 32 55 14 22 32 49 38 60 86 139
355 572 483 777 52 83 99 158 103 165 7 11 -109 13 -655 13 l-664 0 -39 -67z"/>
</g>
</svg>
