<svg width="41" height="6" viewBox="0 0 41 6" xmlns="http://www.w3.org/2000/svg" id="bonum">
    <path d="M17.6959 3C17.6959 4.744 16.4269 6 14.6643 6C12.9097 6 11.625 4.744 11.625 3C11.625 1.256 12.9097 0 14.6643 0C16.419 0 17.6959 1.256 17.6959 3ZM12.8392 3C12.8392 4.144 13.599 4.952 14.6565 4.952C15.7219 4.952 16.4817 4.144 16.4817 3C16.4817 1.872 15.7219 1.048 14.6565 1.048C13.599 1.048 12.8392 1.872 12.8392 3Z"/>
    <path d="M7.46516 0C5.71049 0 4.42583 1.256 4.42583 3C4.42583 3.68 4.62166 4.28 4.96633 4.768H0.603166C0.266333 4.768 0 5.048 0 5.384V6H7.46516C7.46516 6 7.46516 6 7.47299 6C9.22765 6 10.5045 4.744 10.5045 3C10.4967 1.256 9.22765 0 7.46516 0ZM7.45732 4.952C6.40766 4.952 5.63999 4.144 5.63999 3C5.63999 1.872 6.39982 1.048 7.45732 1.048C8.52266 1.048 9.28249 1.872 9.28249 3C9.28249 4.144 8.52266 4.952 7.45732 4.952Z"/>
    <path d="M24.1118 5.384V2.552C24.1118 1.032 23.0308 0 21.4484 0C19.8818 0 18.8086 1.032 18.8086 2.552V5.384C18.8086 5.728 19.0828 6 19.4118 6H20.0149V2.552C20.0149 1.632 20.5789 1.016 21.4484 1.016C22.3179 1.016 22.8819 1.624 22.8819 2.552V5.384C22.8819 5.728 23.1561 6 23.4851 6H24.0883V5.384H24.1118Z"/>
    <path d="M30.5258 0.496V0H29.9305C29.5936 0 29.3273 0.28 29.3273 0.616V3.456C29.3273 4.376 28.7476 4.976 27.8781 4.976C27.0086 4.976 26.4446 4.376 26.4446 3.456V2.752V0.736V0.496V0H25.8493C25.5124 0 25.2461 0.272 25.2461 0.616V3.464C25.2461 4.976 26.3193 6 27.8938 6C29.4605 6 30.5336 4.968 30.5336 3.464V2.016V0.736L30.5258 0.496Z"/>
    <path d="M37.8662 0C36.9496 0 36.229 0.416 35.8765 1.112C35.524 0.416 34.8033 0 33.8868 0C32.5316 0 31.6543 0.92 31.6543 2.32V5.376C31.6543 5.72 31.9285 5.992 32.2575 5.992H32.8606V5.376V2.288C32.8606 1.512 33.3306 0.984 34.0591 0.984C34.7876 0.984 35.2733 1.512 35.2733 2.288V5.384C35.2733 5.728 35.5475 6 35.8765 6H36.4718V5.912V5.504V5.264V4.384V2.288C36.4718 1.512 36.9575 0.984 37.686 0.984C38.4145 0.984 38.8845 1.512 38.8845 2.288V5.384C38.8845 5.728 39.1587 6 39.4877 6H40.0908V2.32C40.0987 0.92 39.2135 0 37.8662 0Z"/>
</svg>
