<svg width="40" height="40" viewBox="0 0 40 40" fill="none" xmlns="http://www.w3.org/2000/svg">
<path d="M30.5469 28.2596V24.6094H9.45312V28.2596C4.14953 28.8086 0 33.3037 0 38.75V40H40V38.75C40 33.3037 35.8505 28.8086 30.5469 28.2596ZM11.7969 28.3962L16.9249 32.9688H11.7969V28.3962ZM18.8281 37.6562H2.41641C2.90477 34.0062 5.80305 31.1084 9.45312 30.6199V35.3125H18.8281V37.6562ZM13.7001 26.9531H26.3L20 32.5705L13.7001 26.9531ZM28.2031 28.3962V32.9688H23.075L28.2031 28.3962ZM21.1719 37.6562V35.3125H30.5469V30.6199C34.197 31.1084 37.0952 34.0061 37.5836 37.6562H21.1719Z" fill="#75ACFF"/>
<path d="M30.3127 9.375L29.2321 4.56883C28.944 3.29141 28.2225 2.13211 27.2007 1.3043C26.1625 0.463281 24.8538 0 23.5156 0C22.2384 0 21.0064 0.418281 20 1.17344C18.9936 0.418281 17.7616 0 16.4844 0C15.1462 0 13.8375 0.463281 12.7994 1.30437C11.7775 2.13242 11.0565 3.29195 10.7691 4.56953C10.7648 4.59008 10.7597 4.6107 10.7548 4.63188L9.6875 9.375H4.76562V11.7188H35.2344V9.375H30.3127ZM16.4844 2.34375C17.4919 2.34375 18.453 2.77828 19.1212 3.53578L20 4.53211L20.8788 3.53578C21.547 2.77828 22.5081 2.34375 23.5156 2.34375C25.0059 2.34375 26.3394 3.30836 26.8302 4.6875H13.1709C13.661 3.30805 14.9939 2.34375 16.4844 2.34375ZM12.0896 9.375C12.2585 8.62398 12.4495 7.77484 12.6168 7.03125H27.3834L27.9104 9.375H12.0896Z" fill="#75ACFF"/>
<path d="M25.2734 14.0625C23.419 14.0625 21.8489 15.2999 21.3434 16.9922H18.6566C18.1511 15.2999 16.581 14.0625 14.7266 14.0625C12.4649 14.0625 10.625 15.9025 10.625 18.1641C10.625 20.4256 12.4649 22.2656 14.7266 22.2656C16.581 22.2656 18.1511 21.0282 18.6566 19.3359H21.3434C21.8489 21.0282 23.419 22.2656 25.2734 22.2656C27.535 22.2656 29.375 20.4256 29.375 18.1641C29.375 15.9025 27.535 14.0625 25.2734 14.0625ZM14.7266 19.9219C13.7573 19.9219 12.9688 19.1333 12.9688 18.1641C12.9688 17.1948 13.7573 16.4062 14.7266 16.4062C15.6959 16.4062 16.4844 17.1948 16.4844 18.1641C16.4844 19.1333 15.6959 19.9219 14.7266 19.9219ZM25.2734 19.9219C24.3042 19.9219 23.5156 19.1333 23.5156 18.1641C23.5156 17.1948 24.3042 16.4062 25.2734 16.4062C26.2427 16.4062 27.0312 17.1948 27.0312 18.1641C27.0312 19.1333 26.2427 19.9219 25.2734 19.9219Z" fill="#75ACFF"/>
</svg>
