<svg width="40" height="40" viewBox="0 0 40 40" fill="none" xmlns="http://www.w3.org/2000/svg">
<path d="M29.4531 28.2031H10.5469C4.73133 28.2031 0 32.9345 0 38.75V40H40V38.75C40 32.9345 35.2687 28.2031 29.4531 28.2031ZM25.7366 30.5469C24.2211 32.0255 22.1648 32.8906 20 32.8906C17.8352 32.8906 15.7789 32.0255 14.2634 30.5469H25.7366ZM2.41641 37.6562C2.95273 33.6482 6.39445 30.5469 10.5469 30.5469H11.23C13.1777 33.4545 16.4773 35.2344 20 35.2344C23.5227 35.2344 26.8223 33.4545 28.77 30.5469H29.4531C33.6055 30.5469 37.0473 33.6482 37.5836 37.6562H2.41641Z" fill="#75ACFF"/>
<path d="M20 16.4844C18.0615 16.4844 16.4844 18.0615 16.4844 20H18.8281C18.8281 19.3538 19.3538 18.8281 20 18.8281C20.6462 18.8281 21.1719 19.3538 21.1719 20H23.5156C23.5156 18.0615 21.9385 16.4844 20 16.4844Z" fill="#75ACFF"/>
<path d="M30.5469 14.1406V0H9.45312V14.1406H7.10938V16.4844H9.51859C10.1034 21.7505 14.5805 25.8594 20 25.8594C25.4195 25.8594 29.8966 21.7505 30.4814 16.4844H32.8906V14.1406H30.5469ZM28.2031 15.3125C28.2031 19.8357 24.5232 23.5156 20 23.5156C15.4768 23.5156 11.7969 19.8357 11.7969 15.3125V9.375H14.1406V11.7188H16.4844V9.375H18.8281V11.7188H21.1719V9.375H23.5156V11.7188H25.8594V9.375H28.2031V15.3125ZM28.2031 7.03125H25.8594V4.6875H23.5156V7.03125H21.1719V4.6875H18.8281V7.03125H16.4844V4.6875H14.1406V7.03125H11.7969V2.34375H28.2031V7.03125Z" fill="#75ACFF"/>
</svg>
