<svg width="20" height="20" viewBox="0 0 20 20" fill="none" xmlns="http://www.w3.org/2000/svg">
<path d="M0.357101 17.2375L5.38724 12.1159C4.67874 10.914 4.27074 9.50852 4.27074 8.00762C4.27074 3.59222 7.79882 0 12.1354 0C16.4719 0 20 3.59222 20 8.00762C20 12.423 16.4719 16.0152 12.1354 16.0152C10.6613 16.0152 9.28086 15.5998 8.10043 14.8784L3.0703 20L0.357101 17.2375ZM3.0703 18.3435L5.48901 15.8808L4.40281 14.7748L1.9841 17.2375L3.0703 18.3435ZM18.8495 8.00762C18.8495 4.23813 15.8376 1.17139 12.1354 1.17139C8.43319 1.17139 5.42121 4.23813 5.42121 8.00762C5.42121 11.7771 8.43319 14.8438 12.1354 14.8438C15.8376 14.8438 18.8495 11.7771 18.8495 8.00762ZM6.06019 13.0873L5.21631 13.9465L6.30251 15.0524L7.14639 14.1932C6.75012 13.8613 6.38623 13.4908 6.06019 13.0873Z" fill="#75ACFF"/>
<path d="M8.14695 8.59359H6.95383V7.4222H8.14691C8.39994 5.62779 9.79749 4.20482 11.5599 3.94719V2.73242H12.7103V3.94723C14.4727 4.20486 15.8702 5.62782 16.1233 7.42224H17.3164V8.59363H16.1233C15.8703 10.388 14.4727 11.811 12.7104 12.0686V13.2834H11.5599V12.0686C9.79753 11.8109 8.39997 10.388 8.14695 8.59359ZM11.5599 10.8803V9.76639H12.7104V10.8803C13.8372 10.6467 14.7268 9.74089 14.9562 8.59359H13.8622V7.4222H14.9562C14.7268 6.2749 13.8372 5.36907 12.7104 5.13549V6.2494H11.5599V5.13549C10.4331 5.3691 9.54343 6.2749 9.31402 7.4222H10.408V8.59359H9.31402C9.54343 9.74089 10.4331 10.6467 11.5599 10.8803Z" fill="#75ACFF"/>
</svg>
