<svg width="25" height="20" viewBox="0 0 25 20" fill="none" xmlns="http://www.w3.org/2000/svg">
<path d="M0 13.2324V2.93203H8.83555V2.19844C8.83555 0.986231 9.82173 0 11.0339 0H15.7748L18.7069 2.93203H25V13.2324H22.068V15.3155L15.7645 18.9907C15.4133 19.1955 15.0302 19.2937 14.6522 19.2937C13.9623 19.2937 13.2897 18.966 12.8616 18.36L12.1103 17.2964L3.50029 13.2324H0ZM4.39688 10.6851L9.04512 5.86401H12.8034L15.4403 8.50093C15.5789 8.63945 15.763 8.71577 15.959 8.71577C16.155 8.71577 16.3392 8.63945 16.4777 8.50088C16.6163 8.36235 16.6926 8.17813 16.6926 7.98218C16.6926 7.78623 16.6163 7.602 16.4777 7.46343L13.4111 4.39683H4.39688V10.6851ZM1.46484 11.7676H2.93203V4.39687H1.46484V11.7676ZM18.1001 4.39687L15.1681 1.46484H11.0339C10.6294 1.46484 10.3004 1.79395 10.3004 2.19844V2.93203H14.0179L17.5135 6.42769C17.9288 6.84292 18.1575 7.39502 18.1575 7.98223C18.1575 8.56943 17.9288 9.12153 17.5135 9.53672C17.0983 9.95195 16.5462 10.1807 15.959 10.1807C15.3718 10.1807 14.8197 9.95195 14.4045 9.53672L12.1966 7.32886H9.66758L4.90029 12.2734L12.4263 15.8257L18.1709 11.7676H20.6031V4.39687H18.1001ZM23.5352 4.39687H22.068V11.7676H23.5352V4.39687ZM15.0267 17.7252L20.6031 14.474V13.2324H18.6361L13.5641 16.8155L14.0581 17.5148C14.2792 17.8279 14.6958 17.9183 15.0267 17.7252Z" fill="#75ACFF"/>
</svg>
