<svg width="25" height="25" viewBox="0 0 25 25" fill="none" xmlns="http://www.w3.org/2000/svg">
<path d="M2.39286 2H24V15.2651L21.7732 17.9027V19.1144H22.4687V24H12.418V19.1144H13.1135V17.9027L10.8867 15.2651V13.328H2.39286V2ZM3.6589 5.04266H4.28808C4.8908 5.04266 5.38118 4.54336 5.38118 3.92968V3.28906H3.6589V5.04266ZM21.0117 3.28906V3.92968C21.0117 4.54336 21.5021 5.04266 22.1048 5.04266H22.734V3.28906H21.0117ZM22.734 6.33172H22.1048C20.804 6.33172 19.7456 5.25415 19.7456 3.92968V3.28906H6.64718V3.92968C6.64718 5.25415 5.58886 6.33172 4.28804 6.33172H3.6589V8.9963H4.28808C5.5889 8.9963 6.64723 10.0739 6.64723 11.3983V12.0389H18.2146L17.7691 11.5798C17.2025 10.9894 16.893 10.2096 16.8977 9.38409C16.9024 8.55858 17.2208 7.78252 17.7941 7.19879L19.0348 5.93551L22.734 9.70193V6.33172ZM13.684 22.7109H21.2027V20.4034H13.684V22.7109ZM12.1527 14.7872L14.3796 17.4248V19.1144H20.5071V17.4248L22.734 14.7872V11.525L19.0348 7.75854L18.6893 8.11033C17.9977 8.81446 17.9912 9.96679 18.6721 10.6764L20.9974 13.0721L20.0969 13.9783L19.4658 13.328H12.1527V14.7872ZM5.38118 12.0389V11.3983C5.38118 10.7846 4.8908 10.2854 4.28808 10.2854H3.6589V12.039H5.38118V12.0389Z" fill="#75ACFF"/>
<path d="M13.3953 8.2462H12.9972C12.8525 8.2462 12.7347 8.36612 12.7347 8.5135C12.7347 8.66089 12.8525 8.78081 12.9972 8.78081H14.6185V10.0699H13.6754V10.7863H12.4094V9.95008C11.8575 9.71508 11.4686 9.15971 11.4686 8.51355C11.4686 7.65533 12.1543 6.95718 12.9972 6.95718H13.3952C13.54 6.95718 13.6577 6.83725 13.6577 6.68982C13.6577 6.54244 13.54 6.42252 13.3952 6.42252H11.774V5.13345H12.4094V4.41699H13.6755V5.16009C14.3849 5.29454 14.9238 5.92911 14.9238 6.68982C14.9238 7.54804 14.2381 8.2462 13.3953 8.2462Z" fill="#75ACFF"/>
</svg>
