<svg width="25" height="25" viewBox="0 0 25 25" fill="none" xmlns="http://www.w3.org/2000/svg">
<path d="M8.99627 5.60178L7.88865 3.49144L7.37116 5.25387L6.1557 4.88388L7.29602 1L11.1106 2.16109L10.7472 3.39869L8.99915 2.86663L10.1152 4.99294C11.9945 8.57352 15.639 10.7978 19.6263 10.7978H22.4844V12.0895H19.6263C15.17 12.0895 11.0968 9.60355 8.99627 5.60178Z" fill="#75ACFF"/>
<path d="M4.51071 21.7085V9.35742H9.15249V21.7085H10.4211V13.4898H15.063V21.7085H16.3316V16.0388H20.9734V21.7086H22.4844V23.0003H2.9997V21.7086H4.51071V21.7085ZM17.6003 21.7085H19.7047V17.3306H17.6002V21.7085H17.6003ZM11.6898 21.7085H13.7943V14.7816H11.6898V21.7085ZM5.77937 21.7085H7.88387V10.6491H5.77937V21.7085Z" fill="#75ACFF"/>
</svg>
