<svg width="25" height="25" viewBox="0 0 25 25" fill="none" xmlns="http://www.w3.org/2000/svg">
<path d="M7.16775 4.58019V2H19.0594V4.58019H23V9.00489C23 11.3069 21.0931 13.1798 18.7492 13.1798H18.5341C17.8679 14.6257 16.619 15.7592 15.0834 16.2902V20.1308H17.7458V22.7109H19.0583V24H7.1688V22.7109H8.4813V20.1308H11.1437V16.2902C9.60817 15.7591 8.35919 14.6257 7.69301 13.1797H7.47789C5.13399 13.1797 3.22706 11.3069 3.22706 9.00485V4.58019H7.16775ZM8.48025 3.28906V4.58019H17.7469V3.28906H8.48025ZM21.6875 9.00485V5.86925H19.0594V10.7804C19.0594 11.1573 19.0224 11.5258 18.9526 11.883C20.4782 11.7799 21.6875 10.5289 21.6875 9.00485ZM9.79384 22.7109H16.4333V21.4198H9.7938V22.7109H9.79384ZM12.4563 20.1308H13.7709V16.5842C13.555 16.6076 13.3358 16.62 13.1136 16.62C12.8914 16.62 12.6722 16.6076 12.4563 16.5842V20.1308H12.4563ZM13.1136 15.331C15.6684 15.331 17.7469 13.2896 17.7469 10.7804V5.86925H8.48021V10.7804C8.48025 13.2896 10.5588 15.331 13.1136 15.331ZM4.5396 9.00485C4.5396 10.5289 5.74898 11.7799 7.27454 11.883C7.20476 11.5258 7.16775 11.1572 7.16775 10.7804V5.86925H4.5396V9.00485Z" fill="#75ACFF"/>
</svg>
