<svg width="18" height="12" viewBox="0 0 18 12" fill="none" xmlns="http://www.w3.org/2000/svg" id="youtube">
<path d="M16.3866 1.03011C15.7711 0.298451 14.6347 0 12.4645 0H4.58656C2.36666 0 1.21102 0.317703 0.597838 1.09667C0 1.85616 0 2.97522 0 4.52402V7.47603C0 10.4766 0.709332 12 4.58656 12H12.4646C14.3466 12 15.3895 11.7366 16.0641 11.0909C16.756 10.4288 17.0512 9.34771 17.0512 7.47603V4.52402C17.0512 2.89068 17.005 1.76502 16.3866 1.03011ZM10.9469 6.40758L7.3696 8.27722C7.28962 8.31902 7.20217 8.33976 7.11482 8.33976C7.01592 8.33976 6.91725 8.31314 6.82984 8.26022C6.66527 8.1605 6.56478 7.98212 6.56478 7.78972V4.06243C6.56478 3.87036 6.665 3.69214 6.82924 3.59236C6.99354 3.49259 7.19788 3.48577 7.36833 3.57432L10.9457 5.43192C11.1277 5.52641 11.242 5.71431 11.2423 5.91931C11.2425 6.12447 11.1287 6.31264 10.9469 6.40758Z" fill="#E7EBF5"/>
</svg>
